{"title":"After Earth 2013 HDRip x264 AC3 UNiQUE","uid":8926980,"size":1501042624,"categoryP":"video","categoryS":"movies","magnet":"?xt=urn:btih:11c233ace75c0fc08eefa9df1f7da828291cbc68&amp;dn=After+Earth+2013+HDRip+x264+AC3+UNiQUE&amp;tr=udp%3A%2F%2Ftracker.openbittorrent.com%3A80&amp;tr=udp%3A%2F%2Fopen.demonii.com%3A1337&amp;tr=udp%3A%2F%2Ftracker.coppersurfer.tk%3A6969&amp;tr=udp%3A%2F%2Fexodus.desync.com%3A6969","seeders":1,"leechers":0,"uploader":"TeX","files":3,"time":1379385249,"description":"[IMG]http://i.imgur.com/lZYmGRe.jpg[/IMG]\n &lt;a href=&quot;\nhttp://www.imdb.com/title/tt1815862/&quot; rel=&quot;nofollow&quot; target=&quot;_NEW&quot;&gt;\nhttp://www.imdb.com/title/tt1815862/&lt;/a&gt;\n\nSource 720p HDC THX\n\nGeneral:\n\nGeneral:\n\nFormat : Matroska\nFormat version : Version 2\nFile size : 1.40 GiB\nDuration : 1h 40mn\nOverall bit rate mode : Variable\nOverall bit rate : 2 001 Kbps\nEncoded date : UTC 2013-09-16 21:44:28\nWriting application : mkvmerge v6.4.0 ('Pale Blue Dot') built on Sep 15 2013 20:31:57\nWriting library : libebml v1.3.0 + libmatroska v1.4.1\n\nVideo:\n\nID : 1\nFormat : AVC\nFormat/Info : Advanced Video Codec\nFormat profile : &lt;a class=&quot;__cf_email__&quot; href=&quot;/cdn-cgi/l/email-protection&quot; data-cfemail=&quot;d39bbab4bb939fe7fde2&quot;&gt;[email&amp;#160;protected]&lt;/a&gt;&lt;script cf-hash='f9e31' type=&quot;text/javascript&quot;&gt;\n/* &lt;![CDATA[ */!function(){try{var t=&quot;currentScript&quot;in document?document.currentScript:function(){for(var t=document.getElementsByTagName(&quot;script&quot;),e=t.length;e--;)if(t[e].getAttribute(&quot;cf-hash&quot;))return t[e]}();if(t&amp;&amp;t.previousSibling){var e,r,n,i,c=t.previousSibling,a=c.getAttribute(&quot;data-cfemail&quot;);if(a){for(e=&quot;&quot;,r=parseInt(a.substr(0,2),16),n=2;a.length-n;n+=2)i=parseInt(a.substr(n,2),16)^r,e+=String.fromCharCode(i);e=document.createTextNode(e),c.parentNode.replaceChild(e,c)}}}catch(u){}}();/* ]]&gt; */&lt;/script&gt;\nFormat settings, CABAC : Yes\nFormat settings, ReFrames : 3 frames\nCodec ID : V_MPEG4/ISO/AVC\nDuration : 1h 40mn\nBit rate mode : Variable\nBit rate : 1 807 Kbps\nMaximum bit rate : 40.0 Mbps\nWidth : 720 pixels\nHeight : 304 pixels\nDisplay aspect ratio : 2.35:1\nFrame rate : 23.976 fps\nColor space : YUV\nChroma subsampling : 4:2:0\nBit depth : 8 bits\nScan type : Progressive\nBits/(Pixel*Frame) : 0.344\nStream size : 1.24 GiB (88%)\nWriting library : x264 core 138 r2358 9e941d1\nDefault : Yes\nForced : No\n\nAudio:\n\nID : 2\nFormat : AC-3\nFormat/Info : Audio Coding 3\nMode extension : CM (complete main)\nFormat settings, Endianness : Big\nCodec ID : A_AC3\nDuration : 1h 40mn\nBit rate mode : Constant\nBit rate : 192 Kbps\nChannel(s) : 2 channels\nChannel positions : Front: L R\nSampling rate : 48.0 KHz\nBit depth : 16 bits\nCompression mode : Lossy\nStream size : 137 MiB (10%)\nLanguage : English\nDefault : Yes\nForced : No\n\nScreens:\n\n[IMG]http://i.imgur.com/YbQbycO.png[/IMG]\n[IMG]http://i.imgur.com/TYaFlJE.png[/IMG]\n[IMG]http://i.imgur.com/9BUjYGb.png[/IMG]\n[IMG]http://i.imgur.com/MZwzXrf.png[/IMG]\n[IMG]http://i.imgur.com/ACvNsUJ.png[/IMG]","torrent":{"xt":"urn:btih:11c233ace75c0fc08eefa9df1f7da828291cbc68","amp;dn":"After+Earth+2013+HDRip+x264+AC3+UNiQUE","amp;tr":["udp%3A%2F%2Ftracker.openbittorrent.com%3A80","udp%3A%2F%2Fopen.demonii.com%3A1337","udp%3A%2F%2Ftracker.coppersurfer.tk%3A6969","udp%3A%2F%2Fexodus.desync.com%3A6969"],"infoHash":"11c233ace75c0fc08eefa9df1f7da828291cbc68","infoHashBuffer":{"type":"Buffer","data":[17,194,51,172,231,92,15,192,142,239,169,223,31,125,168,40,41,28,188,104]},"announce":[],"urlList":[]}}